<svg width="35" height="35" viewBox="0 0 35 35" xmlns="http://www.w3.org/2000/svg" xmlns:xlink="http://www.w3.org/1999/xlink"><defs><path id="a" d="M10.157 20.43h10.157V.01H0V20.43h10.157z"/></defs><g fill="none" fill-rule="evenodd"><circle fill="#3B5998" cx="17.5" cy="17.5" r="17.5"/><g transform="translate(4.516 6.278)"><mask id="b" fill="#fff"><use xlink:href="#a"/></mask><path d="M19.193 20.43c.62 0 1.12-.504 1.12-1.126V1.134c0-.62-.5-1.126-1.12-1.126H1.12C.503.008 0 .513 0 1.135v18.17c0 .62.502 1.126 1.12 1.126h18.073z" fill="#3B5998" mask="url(#b)"/></g><path d="M18.533 26.71V18.8h2.64l.396-3.082h-3.037V13.75c0-.892.246-1.5 1.52-1.5h1.623V9.49c-.28-.037-1.245-.12-2.366-.12-2.34 0-3.943 1.435-3.943 4.073v2.273H12.72V18.8h2.647v7.91h3.166z" fill="#FFF"/></g></svg>
