<svg width="64" height="64" xmlns="http://www.w3.org/2000/svg" xmlns:xlink="http://www.w3.org/1999/xlink"><defs><path d="M19.5 42V22h25v20h-25zm1.25-1.25h22.5v-17.5h-22.5v17.5zM22 39.5l5-5 5 5-1.764.004L27 36.267l-3.233 3.232H22zm11.25-8.75L42 39.5h-1.767l-6.983-6.982-3.491 3.491-.884-.884 4.375-4.375zm-7.5-5a2.5 2.5 0 0 1 0 5 2.5 2.5 0 0 1 0-5zm0 1.25c-.689 0-1.25.561-1.25 1.25s.561 1.25 1.25 1.25S27 28.939 27 28.25 26.439 27 25.75 27z" id="a"/></defs><g fill="none" fill-rule="evenodd"><path fill="#F7F7F7" d="M0 0h64v64H0z"/><use fill="#CCC" xlink:href="#a"/></g></svg>